<svg width="40" height="40" viewBox="0 0 40 40" fill="none" xmlns="http://www.w3.org/2000/svg">
<path d="M39.9983 10.2054C39.9983 10.1571 40 10.1004 40 10.0438C40 8.80537 39.8533 7.60198 39.5783 6.45027L39.6 6.55527C39.08 4.40352 37.7666 2.62344 35.9948 1.5034L35.9615 1.4834C35.0681 0.900037 34.0147 0.476687 32.883 0.278345L32.833 0.271678C32.0613 0.131672 31.1613 0.0416684 30.2446 0.0216676H30.2263C30.1596 0.0216676 30.0879 0.00500021 30.0196 0H9.97708C9.72374 0.0166674 9.47706 0.0283345 9.21872 0.0433351C7.90033 0.0700029 6.64861 0.31168 5.48189 0.735031L5.56356 0.71003C3.38681 1.54506 1.68507 3.2018 0.808367 5.29022L0.788366 5.34522C0.505021 6.02692 0.293346 6.82028 0.188341 7.64532L0.183341 7.69199C0.0983374 8.26368 0.0383349 8.94371 0.0166674 9.63374V9.6604C0.0166674 9.71374 0.00500021 9.76374 0 9.81541V30.1896C0.0166674 30.4229 0.0283345 30.6613 0.0450019 30.8963C0.0783366 32.3313 0.381683 33.6847 0.905038 34.9231L0.87837 34.8515C1.89341 37.1249 3.83516 38.83 6.21026 39.505L6.26859 39.52C6.89695 39.705 7.63032 39.84 8.38702 39.8983L8.42368 39.9C9.34872 39.9883 10.2738 40 11.2021 40H29.5829C30.5063 40 31.4146 39.9383 32.3047 39.8217L32.1997 39.8333C33.6397 39.6733 34.9415 39.1916 36.0682 38.4616L36.0332 38.4833C37.4082 37.5849 38.4833 36.3332 39.145 34.8565L39.1666 34.8031C39.4433 34.1648 39.6583 33.4214 39.7767 32.648L39.7833 32.5964C39.9233 31.698 40.0033 30.6613 40.0033 29.6062C40.0033 29.4629 40.0017 29.3212 39.9983 29.1795V29.2012C39.9983 22.8676 39.9983 16.5374 39.9983 10.2104V10.2054ZM29.2912 16.8557V26.3761C29.2929 26.4178 29.2929 26.4661 29.2929 26.5144C29.2929 27.1928 29.1429 27.8378 28.8729 28.4145L28.8845 28.3862C28.4295 29.3229 27.5995 30.0179 26.5961 30.2813L26.5711 30.2863C26.0444 30.4429 25.4344 30.5463 24.8044 30.5746H24.7877C24.7394 30.5779 24.6844 30.5779 24.6277 30.5779C22.906 30.5779 21.5092 29.1812 21.5092 27.4595C21.5092 26.2244 22.2276 25.156 23.2693 24.651L23.2876 24.6427C23.776 24.4094 24.346 24.2227 24.9394 24.1093L24.9844 24.1027C25.6144 23.966 26.2478 23.8477 26.8744 23.7027C27.3145 23.6277 27.6545 23.2826 27.7245 22.8476V22.8426C27.7462 22.7476 27.7578 22.6393 27.7578 22.5276C27.7578 22.5243 27.7578 22.5226 27.7578 22.5193C27.7578 19.4936 27.7578 16.4696 27.7578 13.4472C27.7562 13.3372 27.7412 13.2306 27.7128 13.1305L27.7145 13.1389C27.6711 12.9155 27.4761 12.7472 27.2428 12.7472C27.2328 12.7472 27.2228 12.7472 27.2128 12.7489C26.9161 12.7705 26.6478 12.8089 26.3828 12.8655L26.4228 12.8589C25.156 13.1089 23.8893 13.3622 22.6226 13.6189L16.4557 14.8656C16.429 14.8656 16.4023 14.8823 16.3757 14.8873C16.0057 14.9373 15.7223 15.2523 15.7223 15.6323C15.7223 15.6573 15.724 15.6823 15.7257 15.7073V15.704V15.9207C15.7257 20.2542 15.7257 24.5882 15.7257 28.9229C15.7273 28.9695 15.7273 29.0262 15.7273 29.0812C15.7273 29.7612 15.5956 30.4096 15.354 31.0013L15.3656 30.9663C14.9256 31.9897 14.0456 32.753 12.9722 33.0247L12.9472 33.0297C12.4155 33.1897 11.8022 33.2931 11.1688 33.3164H11.1555C11.1038 33.3197 11.0438 33.3214 10.9821 33.3214C9.46039 33.3214 8.19867 32.213 7.957 30.7613L7.95533 30.7429C7.922 30.5729 7.90366 30.3796 7.90366 30.1796C7.90366 28.8712 8.71203 27.7495 9.85708 27.2911L9.87874 27.2845C10.4038 27.0728 11.0238 26.8945 11.6655 26.7761L11.7255 26.7678C12.2038 26.6678 12.6839 26.5744 13.1589 26.4728C13.7272 26.3894 14.1589 25.9044 14.1589 25.3177C14.1589 25.3061 14.1589 25.2927 14.1589 25.2811V25.2827V25.0327C14.1589 20.0992 14.1589 15.164 14.1589 10.2271C14.1589 10.2238 14.1589 10.2204 14.1589 10.2154C14.1589 10.0004 14.1839 9.79207 14.2323 9.59207L14.2289 9.6104C14.3389 9.17038 14.6906 8.8337 15.1323 8.7487L15.139 8.74703C15.564 8.63703 15.9973 8.56036 16.429 8.47202C17.6507 8.22201 18.8725 7.972 20.0958 7.73199L23.8793 6.96529C24.996 6.74195 26.1128 6.51527 27.2295 6.2986C27.5311 6.22859 27.9078 6.16692 28.2912 6.12526L28.3362 6.12192C28.3662 6.11859 28.4028 6.11526 28.4378 6.11526C28.8879 6.11526 29.2529 6.47694 29.2595 6.92362C29.2729 7.03529 29.2796 7.16363 29.2796 7.29364C29.2796 10.4771 29.2796 13.6633 29.2796 16.849L29.2912 16.8557Z" fill="white"/>
</svg>
