<svg width="120" height="50" viewBox="0 0 120 50" fill="none" xmlns="http://www.w3.org/2000/svg">
<path d="M18.54 5.97665C14.3391 9.33731 10.0619 12.8354 9.02319 13.7673C3.00456 19.1901 0.346582 24.1089 0.0257918 30.4178C-0.279723 36.5739 2.13384 41.7982 7.00679 45.4644C8.59547 46.6712 12.0936 48.4279 13.9572 48.9473C20.7549 50.8873 27.6901 49.9402 35.496 46.0143C36.5042 45.5102 37.986 44.67 38.7803 44.1507C49.1525 37.3224 52.3451 26.1253 46.0363 18.7166C43.974 16.303 39.8954 14.3172 36.0918 13.8589L34.4267 13.6756L34.9614 13.2937C35.2516 13.0951 36.3973 12.2702 37.4819 11.4606C39.1775 10.208 46.4029 4.89207 46.5404 4.80042C46.5709 4.78514 46.464 4.52546 46.3112 4.21994C46.1279 3.82277 45.9904 3.68529 45.8224 3.76167C44.524 4.3116 43.3477 4.4949 41.0716 4.4949C37.0083 4.51018 34.3656 3.76167 28.1637 0.844009C27.3235 0.446838 26.5292 0.0649452 26.407 0.00384521C26.2236 -0.0878105 24.2073 1.43976 18.54 5.97665ZM24.4211 6.93902C27.5526 7.97777 33.4949 9.7192 35.1599 10.0858C35.6335 10.1927 36.0307 10.3302 36.0307 10.3761C36.0154 10.4677 20.816 21.8787 20.5869 21.9703C20.5105 22.0009 20.4494 18.5333 20.4494 14.195C20.4494 7.06123 20.48 6.34327 20.7091 6.08358C20.8466 5.93082 21.0452 5.82389 21.1216 5.83917C21.2132 5.86972 22.695 6.35854 24.4211 6.93902ZM13.5295 23.2535C13.4837 31.8537 13.4226 34.9547 13.2698 35.5199C13.0407 36.4212 12.3533 37.521 11.3451 38.5598L10.6271 39.3235L10.2605 38.8653C9.81753 38.3306 8.51909 36.1767 8.1983 35.4435C6.99152 32.7703 6.686 31.3191 6.59435 28.0348C6.42632 21.787 7.80113 18.1056 12.1089 13.141C12.781 12.3925 13.3768 11.7661 13.4531 11.7661C13.5448 11.7661 13.5754 16.1961 13.5295 23.2535ZM34.7322 20.2289C39.0094 21.3899 42.0035 24.1395 43.2866 28.0959C43.6074 29.0888 43.6532 29.043 41.6063 30.0206C38.8719 31.3343 37.0236 31.7162 34.2281 31.5788C33.2505 31.5329 32.0284 31.3802 31.5243 31.2427C30.4092 30.9372 28.072 29.8526 27.1096 29.1805L26.407 28.7069V24.7352V20.7788L26.8347 20.6108C27.0638 20.5191 27.8276 20.3053 28.5456 20.1525C30.1342 19.8012 33.281 19.847 34.7322 20.2289ZM24.8794 34.2367V47.0836L23.8559 46.9767C20.6633 46.6559 17.7609 45.6019 15.3473 43.9215C14.2322 43.1425 11.7117 40.958 11.6506 40.7136C11.6048 40.5609 13.3615 39.0639 17.4859 35.7185C19.3801 34.1756 19.9148 33.5799 20.2203 32.6939C20.2814 32.48 20.3883 30.4178 20.4342 28.1112L20.5258 23.9103L21.3812 23.3451C22.0687 22.8869 24.6961 21.4051 24.8488 21.3899C24.8641 21.3899 24.8794 27.1793 24.8794 34.2367ZM43.638 32.1134C43.5158 33.641 42.8131 35.9629 42.0646 37.3835C42.0646 37.3988 41.4383 37.2155 40.6745 36.9558C37.5888 35.8865 34.6406 35.5352 32.2881 35.9476C30.6383 36.2379 28.8358 36.8183 27.4457 37.521L26.407 38.0404V34.3895V30.7233L27.9804 31.4718C30.8216 32.8314 33.8768 33.366 36.7792 33.0147C38.5053 32.8008 40.0329 32.312 42.0798 31.3343C42.9047 30.9372 43.6227 30.6622 43.6685 30.7233C43.7143 30.7997 43.7143 31.426 43.638 32.1134ZM37.6346 37.7349C39.1775 38.132 41.0564 38.8042 41.1633 38.9875C41.2091 39.0639 40.4759 39.904 39.5135 40.8511C37.1 43.2647 34.6253 44.8228 31.6007 45.831C30.3328 46.2587 27.797 46.7475 26.8347 46.7475H26.407V43.1578V39.568L27.2166 39.1097C28.1942 38.5445 30.1495 37.8265 31.5549 37.521C32.9908 37.1849 35.9848 37.2919 37.6346 37.7349Z" fill="white"/>
<path d="M102.48 4.40326C96.828 7.82502 92.398 12.0717 90.3358 16.0586C88.6402 19.3429 88.2736 23.116 89.3582 26.3239C90.0761 28.432 92.062 31.0899 93.9256 32.4647C94.3075 32.7397 95.4379 33.4118 96.4308 33.9312L98.2334 34.8783L100.464 33.3507C101.701 32.5259 104.435 30.6775 106.528 29.2568C108.636 27.8362 111.034 26.2017 111.875 25.6212L113.402 24.5825L113.524 25.163C113.723 26.0184 113.54 30.7386 113.265 32.2356C112.425 36.7572 111.279 39.6596 108.667 43.8146C108.651 43.8299 105.825 42.5773 102.404 41.0191C98.9666 39.461 96.1559 38.2084 96.1253 38.239C95.4837 38.9111 91.5273 44.1048 91.6037 44.1659C91.6648 44.2271 93.9103 45.2811 96.5989 46.5184C99.2874 47.7557 102.068 49.0389 102.77 49.3597L104.038 49.9554L104.68 49.4666C106.65 47.939 108.346 46.3962 110.729 44.0132C116.931 37.796 119.268 33.2438 119.91 26.2017C120.276 22.062 119.512 17.5709 117.893 14.3325C115.51 9.55117 111.065 5.885 105.382 3.99081C104.588 3.73112 103.946 3.51726 103.946 3.51726C103.931 3.51726 103.274 3.91443 102.48 4.40326ZM100.326 10.4219C105.749 11.9647 109.66 15.0046 111.859 19.3735C112.256 20.1678 113.234 22.9174 113.142 22.9785C113.112 23.0091 111.691 23.9714 109.965 25.1324C108.239 26.2934 106.299 27.6071 105.657 28.0501L104.496 28.8597L103.183 28.3403C100.525 27.3016 99.1499 26.4614 97.6529 24.9796C96.4919 23.834 96.1406 23.3757 95.5601 22.1995C94.6436 20.3664 94.3228 18.8694 94.4144 17.0515C94.5366 14.8671 95.3463 12.9424 97.103 10.651C97.882 9.62755 97.6376 9.64283 100.326 10.4219Z" fill="white"/>
<path d="M60.9759 4.388C60.9454 4.69351 60.6704 6.45022 59.5553 13.4465C59.1275 16.0892 58.4096 20.6566 57.9513 23.6048C57.4778 26.5378 57.0653 29.1041 57.0348 29.3027C56.9737 29.5777 58.0277 28.9361 62.0147 26.2628L67.0709 22.8869L68.629 23.5285C74.999 26.1406 78.5583 30.54 78.9096 36.2837C79.1235 39.8429 77.7945 43.005 75.0907 45.3727L74.3727 46.0143L69.7442 43.3105C62.6104 39.1097 61.7091 38.5903 60.3496 37.8113L59.0817 37.078L58.7304 37.4446C56.882 39.3541 54.3768 42.2412 54.4684 42.3329C54.5296 42.394 57.4014 44.1354 60.8231 46.1976L67.0556 49.9402L67.7889 49.8027C71.4398 49.1153 74.7088 47.878 77.2904 46.2129C81.0176 43.8146 83.8742 39.018 84.47 34.1756C85.0963 29.1499 83.4618 24.6283 79.7498 21.0538C78.268 19.6332 76.9238 18.6861 74.7546 17.5404L73.3034 16.7766L68.904 19.7248C66.4904 21.344 63.3131 23.4826 61.8619 24.4756C60.3954 25.4532 59.1581 26.2475 59.1428 26.217C59.1123 26.1864 59.6469 22.6425 60.3496 18.35L61.6022 10.5441H70.4774H79.3526L80.5288 7.5959C81.1704 5.99195 81.7356 4.54075 81.7814 4.388C81.8884 4.14359 81.3232 4.12831 71.4398 4.12831C61.6022 4.12831 60.9912 4.14359 60.9759 4.388Z" fill="white"/>
</svg>
