<svg width="40" height="23" viewBox="0 0 40 23" fill="none" xmlns="http://www.w3.org/2000/svg">
<path d="M32.5 22.5H20C19.25 22.5 18.75 22 18.75 21.25V1.375C18.75 0.75 19.25 0.25 19.875 0.125C20.375 -1.21072e-07 20.875 0 21.25 0C25.25 0 29.25 3.375 30.625 7.75C31.25 7.625 31.875 7.5 32.5 7.5C36.625 7.5 40 10.875 40 15C40 19.125 36.625 22.5 32.5 22.5Z" fill="black"/>
<path d="M16.25 22.5C15.5 22.5 15 22 15 21.25V3.75C15 3 15.5 2.5 16.25 2.5C17 2.5 17.5 3 17.5 3.75V21.25C17.5 22 17 22.5 16.25 22.5Z" fill="black"/>
<path d="M12.5 21.25C11.75 21.25 11.25 20.75 11.25 20V11.25C11.25 10.5 11.75 10 12.5 10C13.25 10 13.75 10.5 13.75 11.25V20C13.75 20.75 13.25 21.25 12.5 21.25Z" fill="black"/>
<path d="M8.75 22.5C8 22.5 7.5 22 7.5 21.25V7.5C7.5 6.75 8 6.25 8.75 6.25C9.5 6.25 10 6.75 10 7.5V21.25C10 22 9.5 22.5 8.75 22.5Z" fill="black"/>
<path d="M5 21.25C4.25 21.25 3.75 20.75 3.75 20V12.5C3.75 11.75 4.25 11.25 5 11.25C5.75 11.25 6.25 11.75 6.25 12.5V20C6.25 20.75 5.75 21.25 5 21.25Z" fill="black"/>
<path d="M1.25 20C0.5 20 0 19.5 0 18.75V13.75C0 13 0.5 12.5 1.25 12.5C2 12.5 2.5 13 2.5 13.75V18.75C2.5 19.5 2 20 1.25 20Z" fill="black"/>
</svg>
