<svg width="40" height="40" viewBox="0 0 40 40" fill="none" xmlns="http://www.w3.org/2000/svg">
<path fill-rule="evenodd" clip-rule="evenodd" d="M31.83 17.7305C25.384 13.9025 14.75 13.55 8.59399 15.418C7.60599 15.716 6.56199 15.1599 6.26199 14.1699C5.96199 13.1819 6.52 12.1379 7.508 11.8379C14.574 9.69189 26.318 10.1057 33.74 14.5117C34.628 15.0397 34.92 16.1882 34.392 17.0762C33.868 17.9642 32.716 18.2585 31.83 17.7305ZM31.62 23.4004C31.168 24.1344 30.208 24.3641 29.474 23.9141C24.1 20.6101 15.904 19.654 9.54601 21.584C8.72001 21.832 7.85001 21.3679 7.60001 20.5439C7.35201 19.7199 7.816 18.8496 8.64 18.5996C15.902 16.3956 24.932 17.4638 31.106 21.2578C31.84 21.7078 32.07 22.6684 31.62 23.4004ZM29.172 28.8457C28.812 29.4337 28.046 29.6198 27.458 29.2598C22.762 26.3898 16.85 25.742 9.888 27.332C9.218 27.486 8.548 27.0656 8.396 26.3936C8.242 25.7236 8.66 25.0563 9.334 24.9023C16.952 23.1603 23.486 23.9098 28.758 27.1318C29.346 27.4918 29.532 28.2577 29.172 28.8457ZM20 0C8.954 0 0 8.954 0 20C0 31.046 8.954 40 20 40C31.046 40 40 31.046 40 20C40 8.956 31.046 0 20 0Z" fill="white"/>
</svg>
